Coordinates
version=1
nRows=8
nColumns=28
inDegrees=yes

Units are S.I. units (second, meters, Newtons, ...)
Angles are in degrees.

endheader
time	pelvis_tilt	pelvis_list	pelvis_rotation	pelvis_tx	pelvis_ty	pelvis_tz	hip_flexion_r	hip_adduction_r	hip_rotation_r	knee_angle_r	ankle_angle_r	subtalar_angle_r	mtp_angle_r	hip_flexion_l	hip_adduction_l	hip_rotation_l	knee_angle_l	socket_flexion	socket_adduction	socket_rotation	socket_tx	socket_ty	socket_tz	foot_flex	lumbar_extension	lumbar_bending	lumbar_rotation
      0.95000000	      4.55470960	      0.15516092	     -1.27702084	      0.43187790	      1.03754835	      0.29981251	      0.93161724	      2.77470840	     -7.17261185	    -18.30111358	      7.58954167	     -6.09578243	     16.18992521	     12.47275958	     -0.55924474	     -0.16499617	    -66.74404136	     -6.55794364	      0.00000000	      0.00000000	      0.00000000	      0.03202569	      0.00000000	      0.44793117	    -12.51102511	     -0.21871763	      3.88335053
      0.95416667	      4.50250066	      0.27272295	     -1.48472539	      0.43652176	      1.03825464	      0.30024378	      0.52502639	      2.63775464	     -7.13190266	    -17.93707088	      7.50357619	     -5.84363140	     16.24688605	     13.07137402	     -0.40420129	     -0.12601420	    -66.32080102	     -6.59635362	      0.00000000	      0.00000000	      0.00000000	      0.03217355	      0.00000000	      0.45223727	    -12.48916430	     -0.37714312	      4.04137237
      0.95833333	      4.50424322	      0.28891394	     -1.72563575	      0.44081024	      1.03884551	      0.30059948	      0.21846528	      2.57411002	     -7.18119743	    -17.86547750	      7.49202809	     -5.78140041	     16.25904025	     13.63084182	     -0.35620452	     -0.08012156	    -65.93437278	     -6.67581651	      0.00000000	      0.00000000	      0.00000000	      0.03216019	      0.00000000	      0.47770199	    -12.60265695	     -0.38563086	      4.08451257
      0.96250000	      4.38048786	      0.47081120	     -1.87599404	      0.44578790	      1.03952918	      0.30102993	     -0.26580315	      2.40196127	     -7.03642511	    -17.21177413	      7.35566936	     -5.36393030	     16.34377180	     14.24703644	     -0.12526479	      0.01167418	    -65.36991352	     -6.68280863	      0.00000000	      0.00000000	      0.00000000	      0.03238124	      0.00000000	      0.45674717	    -12.43464713	     -0.66611200	      4.31956383
      0.96666667	      4.27753084	      0.57473070	     -2.10464517	      0.45056309	      1.04010162	      0.30146679	     -0.63084826	      2.26986699	     -6.99255509	    -16.81636608	      7.19485576	     -4.97999948	     16.45903800	     14.75754825	      0.02244543	      0.09407782	    -64.64628115	     -6.62706953	      0.00000000	      0.00000000	      0.00000000	      0.03200076	      0.00000000	      0.46127578	    -12.32935935	     -0.83969247	      4.56789307
      0.97083333	      4.29508008	      0.56373571	     -2.33927023	      0.45471513	      1.04057827	      0.30179723	     -0.90474671	      2.22472476	     -7.05619099	    -16.82856764	      7.19671496	     -4.95537694	     16.46701583	     15.30182145	      0.03083748	      0.15035592	    -64.23101886	     -6.74458502	      0.00000000	      0.00000000	      0.00000000	      0.03215311	      0.00000000	      0.49647418	    -12.47678494	     -0.82632567	      4.58882732
      0.97500000	      4.14418507	      0.71562856	     -2.49761606	      0.45971028	      1.04108633	      0.30221219	     -1.35873620	      2.07934823	     -6.91645194	    -16.17208008	      7.09827702	     -4.51801699	     16.59011617	     15.83013717	      0.23564564	      0.29970731	    -63.41504972	     -6.67560380	      0.00000000	      0.00000000	      0.00000000	      0.03188715	      0.00000000	      0.45103542	    -12.26995412	     -1.05055480	      4.83421485
      0.97916667	      4.15266620	      0.70291364	     -2.73252838	      0.46383694	      1.04147486	      0.30254572	     -1.62150196	      2.03278830	     -6.97457663	    -16.17509762	      7.08581140	     -4.47872531	     16.60186953	     16.36451298	      0.24073249	      0.37282405	    -62.94710551	     -6.79703965	      0.00000000	      0.00000000	      0.00000000	      0.03206388	      0.00000000	      0.49251811	    -12.41448689	     -1.03584654	      4.86391377
